<svg width="500" height="500" viewBox="0 0 500 500" fill="none" xmlns="http://www.w3.org/2000/svg">
<g clip-path="url(#clip0)">
<path d="M0 50C0 22.3858 22.3858 0 50 0H450C477.614 0 500 22.3858 500 50V450C500 477.614 477.614 500 450 500H50C22.3858 500 0 477.614 0 450V50Z" fill="#569EF2"/>
<path d="M0 50C0 22.3858 22.3858 0 50 0H450C477.614 0 500 22.3858 500 50V450C500 477.614 477.614 500 450 500H50C22.3858 500 0 477.614 0 450V50Z" fill="url(#paint0_linear)" fill-opacity="0.8"/>
</g>
<defs>
<linearGradient id="paint0_linear" x1="0" y1="0" x2="192.073" y2="598.776" gradientUnits="userSpaceOnUse">
<stop stop-color="#E7001C"/>
<stop offset="1" stop-color="#0646C2"/>
</linearGradient>
<clipPath id="clip0">
<rect width="500" height="500" fill="white"/>
</clipPath>
</defs>
</svg>
